<?xml version="1.0" standalone="no"?>
<!DOCTYPE svg PUBLIC "-//W3C//DTD SVG 20010904//EN"
 "http://www.w3.org/TR/2001/REC-SVG-20010904/DTD/svg10.dtd">
<svg version="1.0" xmlns="http://www.w3.org/2000/svg"
 width="815.000000pt" height="815.000000pt" viewBox="0 0 815.000000 815.000000"
 preserveAspectRatio="xMidYMid meet">

<g transform="translate(0.000000,815.000000) scale(0.100000,-0.100000)"
fill="#000000" stroke="none">
<path d="M3140 7900 c-9 -6 -10 -10 -3 -10 6 0 15 5 18 10 8 12 4 12 -15 0z"/>
<path d="M3040 7876 c0 -2 7 -6 15 -10 8 -3 15 -1 15 4 0 6 -7 10 -15 10 -8 0
-15 -2 -15 -4z"/>
<path d="M2968 7863 c-24 -6 -23 -23 2 -23 11 0 20 7 20 15 0 8 -1 14 -2 14
-2 -1 -11 -3 -20 -6z"/>
<path d="M2905 7833 c-4 -11 -9 -13 -12 -6 -5 14 -59 0 -112 -28 -20 -10 -44
-19 -53 -19 -21 0 -24 -16 -5 -24 6 -3 -1 -3 -16 1 -17 3 -45 -2 -70 -12 -43
-18 -410 -198 -437 -214 -8 -5 -62 -38 -120 -73 -84 -50 -238 -155 -295 -200
-5 -4 -30 -24 -55 -43 -25 -20 -55 -44 -67 -54 -12 -10 -39 -32 -60 -48 -21
-17 -76 -69 -123 -114 -47 -46 -99 -96 -115 -110 -43 -38 -164 -167 -205 -218
-19 -24 -40 -49 -46 -55 -20 -21 -181 -241 -219 -301 -21 -33 -49 -77 -62 -97
-27 -40 -67 -109 -86 -148 -6 -14 -14 -27 -18 -30 -9 -7 -149 -281 -149 -291
0 -5 -11 -32 -24 -61 -13 -29 -31 -73 -41 -98 -10 -25 -24 -59 -31 -77 -8 -17
-14 -36 -14 -42 0 -6 -4 -19 -9 -29 -5 -9 -17 -39 -26 -67 -9 -27 -20 -59 -25
-70 -14 -30 -49 -163 -66 -245 -3 -14 -9 -34 -14 -45 -5 -11 -14 -47 -20 -80
-23 -126 -42 -242 -50 -305 -5 -36 -11 -76 -15 -90 -20 -82 -42 -657 -25 -674
5 -5 10 -46 11 -91 0 -76 9 -159 29 -290 18 -119 38 -230 40 -230 1 0 8 -31
15 -70 11 -61 36 -160 75 -300 6 -22 15 -49 20 -60 5 -11 16 -45 25 -75 9 -30
23 -73 32 -95 8 -22 19 -49 23 -60 23 -61 46 -116 67 -162 12 -28 23 -55 23
-58 0 -3 32 -69 70 -146 93 -186 244 -432 353 -574 4 -5 21 -28 37 -50 17 -22
37 -49 45 -60 92 -122 409 -451 542 -561 226 -188 366 -287 583 -412 148 -85
477 -244 535 -258 17 -4 35 -10 40 -14 33 -23 331 -113 485 -145 36 -8 97 -21
135 -29 39 -9 86 -18 105 -21 19 -3 58 -10 85 -16 206 -41 897 -41 1019 1 16
6 45 10 65 10 20 0 58 7 85 15 27 8 62 15 78 15 15 0 36 4 46 10 9 5 42 13 72
19 30 5 96 21 145 36 50 14 104 30 120 35 41 11 149 50 200 71 11 4 45 18 75
30 30 12 74 30 97 40 24 11 45 19 48 19 23 0 398 203 436 236 8 8 19 14 23 14
4 0 19 8 34 19 15 10 59 39 98 65 39 25 77 53 84 61 7 8 16 15 21 15 5 0 35
20 67 46 129 103 177 141 221 179 69 60 320 312 371 374 25 30 59 70 75 90 17
20 57 72 90 116 33 44 62 82 65 85 3 3 27 39 55 80 27 41 52 77 55 80 7 7 29
42 37 60 4 8 30 53 59 100 29 47 87 157 131 245 81 167 92 192 138 315 15 41
31 84 36 95 30 68 93 277 128 430 12 50 26 104 31 120 5 17 12 57 16 90 3 33
9 65 13 70 8 13 30 197 43 365 20 266 9 644 -26 875 -25 167 -44 268 -56 310
-6 22 -16 67 -22 100 -5 33 -14 64 -19 69 -5 6 -9 20 -9 33 0 12 -7 44 -15 70
-9 26 -23 73 -32 103 -20 67 -21 73 -45 133 -10 26 -26 70 -37 97 -10 28 -21
53 -25 57 -3 3 -6 13 -6 21 0 7 -14 43 -30 79 -16 35 -30 69 -30 74 0 12 -75
161 -104 208 -13 20 -38 63 -56 96 -18 33 -36 62 -40 65 -3 3 -28 43 -55 90
-26 47 -60 101 -73 120 -47 64 -107 145 -117 157 -5 6 -35 45 -65 85 -30 40
-94 114 -142 164 -49 51 -88 97 -88 103 0 14 -155 166 -205 201 -22 15 -61 47
-87 71 -68 64 -123 109 -192 156 -33 23 -70 49 -81 58 -20 16 -133 90 -200
133 -20 12 -41 22 -46 22 -5 0 -30 15 -56 33 -27 19 -67 43 -90 55 -23 11 -50
25 -60 31 -62 33 -149 71 -165 71 -10 0 -18 3 -18 8 0 8 -53 33 -150 69 -36
13 -74 28 -85 33 -17 8 -173 60 -180 60 -2 0 -5 -7 -8 -15 -5 -11 0 -13 23 -8
29 5 36 -2 31 -30 -1 -4 12 -10 29 -13 36 -8 32 -19 -10 -27 -16 -4 -30 -11
-30 -17 0 -6 4 -9 9 -6 12 8 32 -17 23 -29 -22 -31 -83 -41 -65 -12 3 7 -3 4
-14 -6 -12 -10 -28 -15 -39 -12 -10 4 -5 -2 11 -11 38 -23 69 -29 59 -12 -6
10 -5 10 7 1 23 -19 61 -12 56 9 -3 10 -1 21 4 24 5 3 7 9 4 14 -3 5 0 12 7
16 7 4 10 4 6 -1 -4 -4 -3 -14 3 -22 9 -10 8 -13 -4 -13 -10 0 -13 -6 -10 -20
4 -14 13 -18 34 -17 16 1 29 7 29 12 0 6 4 4 9 -4 5 -8 7 -24 5 -37 -2 -12 0
-26 6 -29 13 -8 60 -18 83 -17 9 0 17 -6 17 -14 0 -8 -4 -13 -9 -10 -5 3 -11
-4 -14 -16 -4 -13 -1 -26 6 -30 8 -5 3 -8 -12 -8 -17 0 -22 4 -17 16 5 12 2
15 -10 10 -15 -6 -124 27 -149 44 -5 4 -23 10 -38 14 -15 4 -25 11 -22 16 3 6
-6 10 -20 10 -42 0 -159 41 -144 51 7 4 10 11 6 15 -3 4 -13 1 -21 -5 -10 -8
-27 -10 -48 -5 -29 6 -30 8 -13 15 23 9 18 10 -49 15 -52 3 -75 7 -151 23 -27
6 -68 13 -90 16 -22 3 -68 10 -102 16 -34 6 -70 9 -80 6 -12 -3 -10 -5 8 -6
51 -2 226 -40 433 -92 436 -111 936 -365 1311 -666 186 -149 454 -425 592
-608 398 -532 632 -1088 732 -1740 63 -411 50 -912 -33 -1325 -35 -168 -100
-404 -146 -525 -202 -535 -471 -957 -858 -1349 -138 -139 -321 -295 -455 -387
-125 -86 -237 -159 -242 -159 -3 0 -29 -16 -58 -35 -28 -19 -58 -35 -67 -35
-8 0 10 16 40 35 30 19 62 40 70 45 8 6 58 37 110 70 137 86 190 124 198 143
2 4 10 7 18 7 8 0 14 3 14 8 0 4 13 16 30 27 30 20 47 45 30 45 -5 0 -20 -10
-34 -22 -13 -13 -34 -30 -46 -38 -13 -8 -28 -21 -36 -27 -7 -7 -20 -13 -28
-13 -9 0 -16 -7 -16 -15 0 -15 -12 -20 -23 -9 -3 4 20 26 51 50 31 24 68 54
82 67 14 13 70 64 125 112 182 161 295 284 488 528 37 48 70 95 74 104 4 10 9
20 13 23 3 3 16 20 29 38 20 29 21 33 7 48 -16 16 -20 12 -17 -18 2 -12 -4
-15 -19 -11 -12 3 -19 11 -17 17 3 7 -4 12 -16 12 -14 -1 -21 6 -22 22 -1 14
3 21 10 18 6 -2 12 2 12 9 0 10 -5 11 -18 4 -13 -7 -21 -5 -28 8 -10 17 -10
17 -11 1 0 -10 -4 -18 -10 -18 -5 0 -10 -7 -10 -15 0 -8 -4 -15 -8 -15 -5 0
-15 -11 -22 -25 -7 -14 -20 -25 -28 -25 -9 0 -12 -3 -9 -6 3 -4 2 -15 -4 -26
-6 -11 -13 -17 -16 -14 -7 7 -42 -57 -36 -66 2 -5 -3 -8 -12 -8 -17 0 -39 -18
-44 -35 -2 -5 -7 -9 -11 -8 -5 2 -4 -11 2 -28 11 -33 3 -52 -13 -29 -8 13 -12
11 -29 -8 -11 -13 -24 -21 -29 -18 -9 6 -91 -70 -91 -85 0 -5 -5 -9 -11 -9 -6
0 -19 -10 -30 -23 -10 -12 -18 -17 -19 -12 0 6 19 30 41 55 23 25 49 54 58 66
9 12 44 52 78 90 34 38 73 86 87 106 13 20 42 59 63 86 48 62 130 190 206 322
50 88 170 337 203 422 139 359 214 710 236 1107 23 409 -32 838 -163 1264
-164 534 -460 1014 -870 1412 -536 520 -1273 847 -2009 891 -47 3 -93 7 -102
9 -10 2 -18 -1 -18 -5 0 -8 33 -12 200 -26 41 -3 89 -8 105 -10 17 -3 44 -7
60 -8 55 -6 60 -8 35 -15 l-25 -7 27 -6 c15 -3 26 -2 25 1 -3 10 17 13 56 7
20 -4 37 -10 37 -15 0 -11 -25 -21 -51 -21 -11 0 -17 -5 -14 -10 4 -6 11 -7
17 -4 7 4 8 2 4 -5 -9 -14 12 -43 24 -36 5 3 11 1 14 -4 4 -5 2 -12 -4 -16 -5
-3 -10 -12 -10 -18 0 -8 3 -9 8 -1 14 20 41 24 45 6 4 -15 5 -15 6 1 0 10 -11
30 -25 45 -15 15 -24 22 -20 16 3 -7 0 -14 -7 -17 -9 -3 -13 2 -12 16 2 22 35
38 35 18 0 -14 55 -14 81 0 20 10 93 0 144 -21 11 -4 40 -13 65 -20 77 -21
183 -58 230 -79 40 -18 42 -21 18 -21 -16 0 -28 5 -28 10 0 6 -5 10 -11 10 -5
0 -7 -4 -4 -10 3 -5 -1 -10 -9 -10 -8 0 -18 5 -21 10 -3 6 -1 10 5 10 6 0 8 5
5 10 -4 6 -11 8 -16 5 -12 -8 -12 -45 1 -45 6 0 10 -4 10 -10 0 -18 -18 -11
-25 10 -3 11 -13 20 -21 20 -8 0 -12 5 -9 10 4 6 11 7 17 4 7 -4 8 -2 4 5 -4
6 -12 9 -17 5 -5 -3 -17 0 -26 8 -12 9 -15 9 -9 1 4 -8 1 -13 -9 -13 -9 0 -13
-4 -10 -10 3 -5 -1 -10 -10 -10 -9 0 -13 5 -10 10 3 6 1 10 -6 10 -6 0 -9 -8
-6 -20 3 -11 1 -20 -4 -20 -5 0 -9 4 -9 9 0 5 -11 8 -25 5 -19 -3 -25 0 -25
14 0 10 -7 19 -15 19 -11 0 -12 -4 -4 -13 7 -9 5 -15 -6 -22 -9 -5 -17 -12
-17 -15 0 -21 -12 -47 -22 -48 -6 0 -2 -4 9 -8 19 -8 18 -9 -7 -21 -15 -7 -25
-17 -22 -21 3 -5 -2 -6 -10 -3 -8 3 -12 12 -9 20 4 10 0 12 -11 8 -9 -3 -13
-10 -10 -15 3 -5 0 -9 -6 -9 -7 0 -9 -9 -6 -22 3 -13 3 -17 0 -10 -3 6 -11 9
-16 6 -6 -4 -8 -3 -5 3 3 5 8 21 11 36 4 22 1 27 -17 28 -47 3 -52 4 -49 17 1
8 -2 11 -8 7 -6 -4 -18 -1 -27 7 -10 7 -14 8 -10 1 4 -6 1 -14 -5 -16 -8 -4
-4 -8 9 -12 25 -8 17 -22 -27 -45 -21 -10 -23 -10 -12 1 18 19 15 28 -8 22
-11 -3 -20 0 -20 6 0 5 -7 8 -16 4 -8 -3 -13 -12 -10 -19 3 -7 1 -16 -5 -19
-5 -4 -9 -3 -8 2 4 22 -2 32 -16 27 -12 -5 -13 -10 -4 -20 8 -10 8 -14 0 -14
-6 0 -11 -4 -11 -9 0 -5 10 -7 23 -3 19 5 20 3 9 -10 -10 -12 -10 -18 -1 -23
12 -8 31 14 24 26 -3 3 6 7 20 7 14 0 22 -4 19 -9 -3 -5 -11 -9 -19 -9 -7 0
-16 -11 -19 -24 -3 -13 -15 -26 -26 -29 -11 -3 -20 -13 -20 -24 0 -13 3 -15 9
-5 6 11 10 11 19 0 7 -9 8 -19 2 -28 -7 -10 -10 -11 -10 -2 0 6 -4 12 -9 12
-6 0 -9 -9 -8 -20 1 -11 5 -20 9 -20 4 0 8 -4 8 -10 0 -5 -11 -10 -25 -10 -17
0 -25 6 -25 17 0 15 -2 14 -15 -3 -14 -19 -14 -18 -15 4 0 12 4 22 10 22 5 0
12 11 16 24 3 14 12 27 20 30 8 3 14 13 14 21 0 9 5 13 11 9 6 -3 3 5 -6 20
-23 35 -33 33 -33 -6 0 -22 -18 -65 -53 -126 l-54 -94 -35 7 c-19 3 -73 13
-120 21 -134 24 -487 30 -640 10 -943 -124 -1630 -715 -1859 -1600 -70 -270
-83 -612 -35 -911 29 -177 120 -454 202 -608 l36 -69 -75 -74 c-41 -40 -77
-74 -80 -74 -10 0 -81 140 -127 250 -160 382 -224 785 -188 1173 19 203 44
326 102 514 68 219 120 336 225 506 389 627 997 1011 1769 1118 59 9 189 13
340 13 220 -1 260 -3 390 -27 80 -14 155 -29 168 -33 13 -4 22 -2 22 5 0 6 -2
11 -5 11 -3 0 -65 11 -138 24 -73 14 -166 28 -207 33 -91 10 -397 10 -535 1
-63 -4 -85 -3 -60 2 22 5 55 9 73 9 17 1 32 5 32 10 0 6 -17 7 -37 5 -29 -4
-34 -3 -23 5 8 6 25 11 38 11 43 0 22 15 -23 16 -45 0 -64 8 -52 20 4 4 13 2
20 -5 11 -9 17 -8 26 3 9 11 9 16 0 22 -7 4 -9 3 -5 -4 3 -6 2 -13 -4 -17 -5
-3 -10 -1 -10 4 0 6 -7 11 -15 11 -8 0 -15 6 -15 13 0 6 -5 4 -11 -6 -5 -9 -7
-22 -4 -27 3 -6 -3 -10 -14 -10 -11 0 -23 -4 -26 -10 -3 -5 -12 -10 -18 -10
-8 0 -7 4 2 9 23 15 -9 42 -33 29 -12 -7 -21 -7 -28 0 -7 7 -4 10 8 9 14 -2
19 5 19 26 -1 22 3 26 18 21 14 -4 18 -2 14 7 -2 8 -11 12 -18 10 -8 -2 -19
-4 -26 -5 -7 -1 -16 -6 -20 -11 -5 -4 -1 -5 7 0 8 5 12 4 7 0 -4 -5 -26 -10
-48 -11 -36 -2 -39 0 -34 19 6 21 6 21 -9 3 -9 -10 -12 -24 -9 -30 4 -6 -2 -4
-12 4 -11 9 -16 10 -11 3 4 -7 2 -13 -3 -13 -6 0 -11 5 -11 10 0 6 -7 10 -16
10 -8 0 -13 4 -10 9 4 5 -4 7 -16 3 -14 -3 -19 -2 -14 6 4 7 13 12 19 12 7 0
13 9 14 20 2 26 -18 31 -132 32 l-50 1 45 14 c25 7 61 19 80 25 52 17 120 22
120 8 0 -7 -8 -9 -20 -5 -11 4 -20 2 -20 -4 0 -13 29 -14 48 -2 8 4 14 12 13
17 0 5 14 8 31 6 18 -2 28 0 24 6 -9 15 10 19 151 38 181 24 174 33 -9 12
-180 -21 -220 -28 -398 -75 -1019 -265 -1828 -996 -2226 -2008 -172 -439 -246
-860 -239 -1350 7 -516 112 -964 338 -1448 96 -204 266 -470 452 -705 5 -7 25
-28 43 -46 17 -19 32 -39 32 -44 0 -6 3 -12 8 -14 15 -6 115 -118 105 -118 -5
0 -31 23 -59 50 -27 28 -77 78 -111 112 -35 34 -63 66 -63 72 0 6 -14 19 -31
28 -17 10 -27 22 -24 28 3 5 2 10 -3 10 -6 0 -13 11 -16 25 -4 14 -13 25 -21
25 -8 0 -16 7 -16 15 -3 34 -5 40 -16 38 -11 -2 -61 54 -64 72 -1 6 -10 16
-20 23 -11 7 -19 19 -19 26 0 14 -53 76 -65 76 -4 0 -3 -6 2 -13 33 -41 13
-90 -26 -65 -12 7 -21 17 -22 23 0 5 -4 0 -9 -13 -9 -22 -30 -31 -30 -12 0 6
-9 10 -20 10 -11 0 -20 -2 -20 -5 0 -9 84 -140 92 -143 4 -2 8 -8 8 -13 0 -12
90 -145 117 -174 10 -11 36 -42 58 -70 21 -27 44 -54 50 -60 6 -5 49 -55 96
-110 140 -162 290 -300 512 -469 15 -11 38 -29 49 -38 12 -10 25 -18 30 -18 4
0 8 -4 8 -10 0 -17 -25 -11 -48 10 -22 21 -52 27 -52 11 0 -5 6 -12 13 -14 9
-4 9 -6 -1 -6 -20 -1 -72 41 -65 52 3 6 1 7 -5 4 -34 -22 -495 417 -651 618
-422 548 -677 1125 -775 1760 -33 209 -37 256 -43 470 -24 892 242 1724 770
2410 244 317 470 536 777 755 391 279 883 493 1355 588 44 9 72 18 63 20 -10
2 -77 -8 -150 -21 -131 -25 -199 -29 -215 -13 -4 4 10 7 32 6 54 -3 62 -1 47
9 -8 4 -31 7 -53 6 -21 -1 -39 2 -39 6 0 5 4 9 9 9 6 0 9 9 8 19 -1 14 -5 17
-13 10 -6 -5 -19 -7 -28 -3 -9 3 -16 1 -16 -6 0 -6 -5 -8 -11 -5 -6 4 -8 13
-5 21 7 17 -6 18 -22 2 -8 -8 -15 -8 -25 0 -8 7 -17 9 -21 5 -4 -4 -4 1 0 12
6 16 5 18 -7 8 -7 -7 -22 -13 -33 -12 -20 0 -20 1 2 9 12 5 22 12 22 15 0 4
-4 4 -9 0 -5 -3 -11 5 -13 17 -4 28 -33 35 -43 11z m-45 -23 c0 -5 -4 -10 -9
-10 -5 0 -18 -3 -28 -6 -16 -6 -16 -5 2 9 23 19 35 21 35 7z m2495 0 c3 -5 -1
-10 -9 -10 -9 0 -16 5 -16 10 0 6 4 10 9 10 6 0 13 -4 16 -10z m80 -41 c7 -10
-36 -2 -48 10 -5 5 2 6 17 4 15 -3 29 -9 31 -14z m-2655 -7 c0 -4 -10 -9 -22
-9 -18 -2 -20 0 -8 7 18 12 30 13 30 2z m2630 -42 c0 -5 -2 -10 -4 -10 -3 0
-8 5 -11 10 -3 6 -1 10 4 10 6 0 11 -4 11 -10z m147 -49 c0 -11 -7 -17 -14
-14 -9 4 -9 8 0 19 16 17 16 17 14 -5z m-292 -1 c3 -5 -1 -10 -10 -10 -9 0
-13 5 -10 10 3 6 8 10 10 10 2 0 7 -4 10 -10z m385 -7 c0 -2 -8 -3 -17 -2 -32
3 -44 -1 -38 -11 3 -6 -1 -7 -9 -4 -9 3 -16 10 -16 16 0 5 4 7 8 4 4 -2 14 -1
21 3 13 8 51 4 51 -6z m-2473 1 c-3 -3 -12 -4 -19 -1 -8 3 -5 6 6 6 11 1 17
-2 13 -5z m2312 -6 c28 4 51 -20 32 -33 -5 -3 -11 2 -14 9 -4 10 -15 13 -31
10 -20 -3 -26 0 -25 13 0 10 3 13 5 7 2 -6 17 -9 33 -6z m-2459 -34 c-88 -28
-91 -29 -63 -9 22 15 83 33 118 33 11 1 -14 -10 -55 -24z m2440 -38 c0 -12 -5
-7 -19 24 -11 24 -11 24 3 6 9 -11 16 -24 16 -30z m40 9 c-7 -9 -15 -13 -19
-10 -3 3 1 10 9 15 21 14 24 12 10 -5z m-2580 -5 c-20 -13 -43 -13 -35 0 3 6
16 10 28 10 18 0 19 -2 7 -10z m-70 -24 c-41 -22 -70 -29 -70 -16 0 6 3 9 8 6
4 -2 18 2 32 10 14 7 32 13 40 13 8 0 4 -6 -10 -13z m2755 -76 c3 -5 -1 -10
-10 -10 -9 0 -13 5 -10 10 3 6 8 10 10 10 2 0 7 -4 10 -10z m48 3 c-7 -2 -19
-2 -25 0 -7 3 -2 5 12 5 14 0 19 -2 13 -5z m-93 -7 c0 -11 -19 -15 -25 -6 -3
5 1 10 9 10 9 0 16 -2 16 -4z m105 -66 c3 -6 -1 -7 -9 -4 -18 7 -21 14 -7 14
6 0 13 -4 16 -10z m-850 -49 c17 -7 17 -8 -8 -13 -15 -3 -35 1 -44 8 -17 12
-16 13 7 13 14 0 34 -4 45 -8z m1052 -17 c-3 -3 -12 -4 -19 -1 -8 3 -5 6 6 6
11 1 17 -2 13 -5z m-2637 -54 c0 -5 -2 -10 -4 -10 -3 0 -8 5 -11 10 -3 6 -1
10 4 10 6 0 11 -4 11 -10z m125 -10 c3 -6 -5 -10 -19 -10 -14 0 -28 5 -31 10
-3 6 5 10 19 10 14 0 28 -4 31 -10z m1695 -90 c0 -5 -8 -10 -17 -10 -15 0 -16
2 -3 10 19 12 20 12 20 0z m130 6 c0 -11 -19 -15 -25 -6 -3 5 1 10 9 10 9 0
16 -2 16 -4z m185 -16 c3 -5 1 -10 -4 -10 -6 0 -11 5 -11 10 0 6 2 10 4 10 3
0 8 -4 11 -10z m-345 -45 c-7 -9 -15 -13 -17 -11 -6 6 20 36 26 30 2 -2 -2
-10 -9 -19z m60 15 c-18 -12 -40 -13 -40 -2 0 4 12 9 28 10 21 1 23 0 12 -8z
m-1405 -20 c6 -1 -8 -6 -30 -10 -42 -8 -58 -4 -36 9 11 7 39 8 66 1z m1311
-41 c5 -8 9 -8 14 1 5 7 10 8 14 2 3 -5 -4 -18 -16 -28 -12 -11 -18 -13 -13
-5 5 9 2 19 -10 28 -11 7 -14 13 -8 13 7 0 15 -5 19 -11z m-1386 -3 c0 -2 -9
-6 -20 -9 -11 -3 -20 -1 -20 4 0 5 9 9 20 9 11 0 20 -2 20 -4z m1353 -38 c56
-50 71 -58 79 -45 5 8 8 6 8 -8 0 -17 2 -17 10 -5 5 8 10 11 10 5 0 -31 -17
-34 -55 -8 -41 28 -85 68 -85 78 0 9 6 6 33 -17z m-123 -14 c0 -2 -7 -4 -15
-4 -8 0 -15 4 -15 10 0 5 7 7 15 4 8 -4 15 -8 15 -10z m40 4 c0 -7 -19 -33
-42 -58 -22 -25 -38 -37 -35 -27 4 10 7 23 7 28 0 6 5 7 10 4 6 -3 10 1 10 9
0 9 5 16 10 16 6 0 10 6 10 14 0 12 8 19 28 25 1 1 2 -5 2 -11z m116 -59 c41
-33 74 -62 74 -64 0 -2 -22 -36 -48 -77 -160 -243 -222 -434 -222 -687 0 -182
19 -294 100 -591 67 -243 91 -379 97 -550 14 -382 -101 -691 -350 -942 -174
-176 -400 -302 -641 -357 -109 -25 -320 -55 -338 -49 -8 4 -22 37 -32 75 -10
37 -21 77 -26 88 -26 62 -17 75 53 75 27 0 96 7 154 16 348 51 616 209 780
460 115 177 164 349 164 579 0 166 -17 270 -92 560 -89 344 -99 397 -106 560
-11 302 52 535 214 784 51 78 130 181 140 181 3 0 38 -27 79 -61z m81 55 c-3
-3 -12 -4 -19 -1 -8 3 -5 6 6 6 11 1 17 -2 13 -5z m-1822 -17 c6 0 24 3 40 7
25 6 28 5 17 -6 -7 -7 -33 -13 -57 -13 -24 0 -50 6 -57 13 -11 11 -8 12 17 6
16 -4 34 -7 40 -7z m1495 -9 c0 -18 -2 -20 -9 -8 -6 8 -7 18 -5 22 9 14 14 9
14 -14z m50 18 c0 -11 -19 -15 -25 -6 -3 5 1 10 9 10 9 0 16 -2 16 -4z m-1655
-24 c-3 -3 -11 0 -18 7 -9 10 -8 11 6 5 10 -3 15 -9 12 -12z m53 -6 c15 4 24
3 19 -1 -12 -14 -77 -33 -77 -24 0 5 7 9 15 9 8 0 13 6 11 13 -1 6 -1 9 1 5 3
-5 17 -5 31 -2z m1587 -56 c12 -13 7 -26 -34 -87 -26 -39 -58 -92 -70 -117
-13 -28 -26 -44 -32 -40 -6 3 -7 9 -3 13 11 8 57 91 50 91 -17 0 -35 -14 -29
-23 3 -5 1 -7 -5 -4 -5 4 -8 16 -5 27 3 11 9 17 14 14 5 -3 9 3 9 12 0 17 1
16 13 -1 10 -12 16 -15 21 -6 4 6 0 18 -9 27 -9 9 -13 19 -10 22 3 3 12 -3 20
-14 15 -18 15 -17 11 13 -2 18 -2 42 1 53 6 23 24 22 31 -1 3 -11 2 -11 -6 -1
-13 20 -25 -14 -13 -36 15 -27 33 30 21 64 -6 14 -7 31 -3 37 5 8 9 5 11 -8 2
-11 10 -27 17 -35z m-79 -7 c-11 -11 -17 4 -9 23 7 18 8 18 11 1 2 -10 1 -21
-2 -24z m-1626 17 c0 -5 -5 -10 -11 -10 -5 0 -7 5 -4 10 3 6 8 10 11 10 2 0 4
-4 4 -10z m2010 0 c0 -5 -4 -10 -10 -10 -5 0 -10 5 -10 10 0 6 5 10 10 10 6 0
10 -4 10 -10z m-2040 -14 c0 -2 -7 -6 -15 -10 -8 -3 -15 -1 -15 4 0 6 7 10 15
10 8 0 15 -2 15 -4z m1540 -58 c0 -10 3 -9 9 1 6 9 11 10 15 2 4 -5 -6 -17
-23 -25 -16 -9 -32 -27 -35 -41 -4 -14 -11 -23 -16 -20 -5 3 0 25 12 50 21 44
38 58 38 33z m64 -50 c-9 -14 -24 2 -24 25 1 21 1 21 15 3 8 -10 12 -23 9 -28z
m-37 3 c10 -16 9 -19 -5 -17 -9 2 -22 -4 -29 -13 -10 -13 -10 -9 -1 17 14 37
19 39 35 13z m-787 -1 c0 -6 -21 -10 -47 -9 -37 1 -42 3 -23 8 40 11 70 12 70
1z m375 0 c11 -4 -56 -5 -150 -3 -93 3 -172 7 -175 10 -8 7 304 1 325 -7z
m-475 -10 c0 -5 -7 -10 -15 -10 -8 0 -15 5 -15 10 0 6 7 10 15 10 8 0 15 -4
15 -10z m560 6 c0 -9 -39 -13 -51 -5 -10 6 -4 9 19 9 17 0 32 -2 32 -4z m60
-12 c0 -2 -11 -4 -25 -4 -14 0 -25 4 -25 9 0 4 11 6 25 3 14 -2 25 -6 25 -8z
m-695 -3 c-15 -12 -75 -22 -75 -11 0 5 15 11 33 13 17 2 36 5 42 5 5 1 5 -1 0
-7z m-85 -11 c0 -5 -8 -10 -18 -10 -26 0 -34 -11 -21 -27 9 -9 8 -13 0 -13 -6
0 -11 5 -11 10 0 13 -56 13 -81 0 -11 -6 -34 -12 -52 -14 -17 -2 -45 -6 -62
-10 -22 -5 -26 -5 -14 3 25 16 172 53 191 48 10 -3 18 -1 18 3 0 7 17 15 43
19 4 0 7 -3 7 -9z m926 -4 c7 -1 17 -5 20 -9 11 -10 -47 -2 -76 12 -23 10 -23
11 9 5 18 -3 40 -7 47 -8z m-906 -20 c0 -3 -4 -8 -10 -11 -5 -3 -10 -1 -10 4
0 6 5 11 10 11 6 0 10 -2 10 -4z m1795 -109 c161 -108 455 -365 455 -398 0
-14 -78 -112 -100 -127 -12 -7 -35 8 -105 70 -126 112 -271 228 -403 321 -63
44 -116 86 -119 93 -6 15 36 88 72 126 l26 28 42 -27 c23 -14 83 -53 132 -86z
m-1915 73 c0 -5 -7 -10 -15 -10 -8 0 -15 5 -15 10 0 6 7 10 15 10 8 0 15 -4
15 -10z m-50 -8 c0 -12 55 -30 84 -27 23 3 25 1 15 -16 -6 -12 -15 -17 -22
-12 -7 4 -20 6 -29 5 -11 -2 -18 3 -18 12 0 8 -13 17 -30 21 -17 4 -28 11 -24
16 6 11 24 12 24 1z m110 -2 c0 -5 -4 -10 -10 -10 -5 0 -10 5 -10 10 0 6 5 10
10 10 6 0 10 -4 10 -10z m-255 -14 c-10 -7 -28 -11 -39 -8 -20 6 -20 6 4 13
43 12 56 10 35 -5z m91 -8 c5 -8 2 -9 -9 -5 -9 3 -19 2 -22 -3 -9 -14 -42 -12
-51 2 -5 8 0 9 14 6 12 -4 25 -2 28 3 7 13 31 11 40 -3z m294 -4 c0 -2 -7 -4
-15 -4 -8 0 -15 4 -15 10 0 5 7 7 15 4 8 -4 15 -8 15 -10z m-70 2 c0 -3 -4 -8
-10 -11 -5 -3 -10 -1 -10 4 0 6 5 11 10 11 6 0 10 -2 10 -4z m110 -27 c0 -14
-17 -10 -23 5 -4 10 -1 13 9 9 7 -3 14 -9 14 -14z m40 11 c-8 -5 -19 -10 -25
-10 -5 0 -3 5 5 10 8 5 20 10 25 10 6 0 3 -5 -5 -10z m90 0 c0 -5 -4 -10 -10
-10 -5 0 -10 5 -10 10 0 6 5 10 10 10 6 0 10 -4 10 -10z m-228 -19 c-7 -4 -14
-15 -16 -23 -1 -8 -9 -23 -19 -32 -18 -19 -23 -41 -7 -31 6 3 10 1 10 -4 0 -6
-7 -11 -15 -11 -8 0 -15 -6 -15 -12 0 -10 -3 -9 -9 1 -7 11 -11 10 -21 -5 -9
-16 -11 -16 -6 -2 3 10 1 20 -4 23 -6 4 -10 0 -10 -7 0 -8 -5 -7 -17 4 -15 16
-15 18 8 37 16 13 26 16 31 8 4 -6 4 -15 2 -19 -3 -4 2 -8 11 -8 9 0 14 4 11
8 -3 5 4 15 15 22 10 8 19 22 19 31 0 16 13 27 35 28 6 0 4 -3 -3 -8z m68 5
c0 -3 -4 -8 -10 -11 -5 -3 -10 -1 -10 4 0 6 5 11 10 11 6 0 10 -2 10 -4z m184
-23 c-17 -18 -27 -13 -18 10 3 9 12 13 20 10 11 -4 11 -7 -2 -20z m242 12
c-33 -18 -46 -19 -46 -4 0 5 4 8 8 5 4 -2 14 -1 22 5 8 5 22 9 30 9 8 0 2 -7
-14 -15z m298 0 c-4 -8 -9 -15 -13 -15 -4 0 -8 7 -8 15 0 8 6 15 13 15 8 0 11
-6 8 -15z m-588 -6 c2 -5 -10 -8 -28 -7 -52 2 -104 -20 -138 -58 -29 -33 -37
-33 -24 0 3 9 10 16 15 16 9 0 20 7 52 36 7 6 19 13 27 16 24 8 90 6 96 -3z
m-172 -14 c-4 -8 -8 -15 -10 -15 -2 0 -4 7 -4 15 0 8 4 15 10 15 5 0 7 -7 4
-15z m291 -12 l18 -27 -28 22 c-23 18 -31 20 -44 10 -14 -12 -14 -11 -2 5 19
24 36 21 56 -10z m-511 9 c3 -5 -1 -9 -9 -9 -8 0 -15 4 -15 9 0 4 4 8 9 8 6 0
12 -4 15 -8z m45 -6 c9 -11 9 -16 0 -22 -8 -4 -9 -3 -5 4 4 7 2 12 -3 12 -6 0
-11 5 -11 10 0 14 5 13 19 -4z m968 8 c-3 -3 -12 -4 -19 -1 -8 3 -5 6 6 6 11
1 17 -2 13 -5z m504 -17 c-10 -9 -11 -8 -5 6 3 10 9 15 12 12 3 -3 0 -11 -7
-18z m-1071 -26 c14 -10 34 -39 44 -64 17 -41 18 -51 7 -89 -8 -26 -28 -57
-52 -79 l-39 -36 0 -317 -1 -317 -32 -19 c-70 -43 -67 -59 -67 323 l0 343 -28
16 c-16 10 -40 37 -53 62 -22 42 -23 48 -11 93 17 61 54 100 106 111 47 10 90
1 126 -27z m44 8 c-3 -5 0 -9 7 -9 7 0 9 -3 6 -6 -7 -8 -37 14 -37 27 0 5 7 6
15 3 8 -4 12 -10 9 -15z m252 9 c10 -16 5 -271 -6 -282 -5 -5 -20 -6 -34 -2
-26 6 -26 7 -26 110 0 95 -2 104 -20 109 -29 7 -27 55 3 67 32 13 75 12 83 -2z
m-716 -8 c0 -5 -9 -10 -21 -10 -11 0 -17 5 -14 10 3 6 13 10 21 10 8 0 14 -4
14 -10z m978 -18 c5 -33 -15 -54 -38 -42 -45 24 -69 -93 -30 -143 34 -43 22
-75 -24 -63 -12 3 -32 24 -45 47 -20 35 -23 51 -19 104 6 64 28 109 58 119 8
2 33 3 55 3 34 -2 41 -6 43 -25z m712 -14 c0 -6 -6 -5 -15 2 -8 7 -15 14 -15
16 0 2 7 1 15 -2 8 -4 15 -11 15 -16z m-1691 3 c16 -10 26 -95 17 -143 -3 -18
-17 -45 -31 -60 -14 -15 -25 -31 -25 -35 0 -4 23 -29 50 -54 l50 -46 0 -361 0
-361 -27 -26 c-67 -63 -63 -86 -63 324 l0 370 -45 51 c-25 28 -45 59 -45 70 0
12 -12 26 -30 35 -37 19 -60 62 -60 113 0 46 31 92 62 92 18 0 19 -5 15 -54
-7 -67 7 -92 47 -82 27 7 27 9 26 74 -1 37 -1 72 -1 79 1 10 13 16 41 22 3 0
11 -3 19 -8z m489 -26 c-3 -3 -9 2 -12 12 -6 14 -5 15 5 6 7 -7 10 -15 7 -18z
m139 -44 c0 -11 -5 -18 -9 -15 -4 3 -5 11 -1 19 7 21 12 19 10 -4z m1126 -168
c104 -82 243 -191 309 -243 67 -52 123 -100 125 -106 3 -10 -105 -64 -127 -64
-5 0 -101 73 -213 163 -112 89 -233 185 -268 213 -51 40 -63 55 -62 75 4 32
33 109 42 109 4 0 91 -66 194 -147z m-1253 77 c0 -5 -5 -10 -11 -10 -5 0 -7 5
-4 10 3 6 8 10 11 10 2 0 4 -4 4 -10z m-1048 -120 c-5 -45 -8 -50 -38 -50 -21
0 -24 4 -24 39 0 41 10 51 45 48 17 -2 19 -8 17 -37z m1255 4 c-3 -3 -12 -4
-19 -1 -8 3 -5 6 6 6 11 1 17 -2 13 -5z m-17 -28 c0 -2 -9 -6 -20 -9 -11 -3
-20 -1 -20 4 0 5 9 9 20 9 11 0 20 -2 20 -4z m40 -6 c0 -5 -4 -10 -10 -10 -5
0 -10 5 -10 10 0 6 5 10 10 10 6 0 10 -4 10 -10z m-978 -30 c114 -32 141 -173
48 -253 l-40 -34 0 -377 0 -376 -42 -62 -43 -63 -3 442 -2 442 -28 16 c-99 59
-95 201 8 253 51 25 52 25 102 12z m1026 -26 c40 -31 52 -59 52 -122 0 -42 -4
-50 -50 -92 l-49 -47 -3 -73 c-3 -72 -4 -74 -33 -82 -50 -13 -55 -6 -55 80 0
79 0 80 -35 106 -66 51 -81 115 -44 187 40 78 143 99 217 43z m1922 -32 c86
-79 87 -63 -22 -209 -151 -202 -380 -368 -618 -447 -108 -36 -311 -76 -385
-76 -42 0 -42 0 -48 43 -3 23 -15 71 -27 107 -11 35 -18 70 -16 77 4 8 24 13
58 13 121 1 384 68 509 130 140 69 297 205 404 349 33 44 63 80 66 81 3 0 38
-30 79 -68z m-3469 -72 c31 -17 49 -64 49 -129 0 -72 -14 -108 -51 -127 -79
-40 -149 19 -149 126 0 104 76 169 151 130z m237 -131 c2 -115 0 -138 -13
-143 -38 -14 -45 2 -45 110 0 95 -2 104 -19 104 -20 0 -35 25 -25 42 9 15 46
27 74 25 l25 -2 3 -136z m2170 29 c70 -57 143 -115 162 -129 19 -15 33 -29 30
-32 -7 -7 -126 -27 -161 -27 -17 0 -46 20 -96 68 l-72 67 -6 67 c-6 59 -3 88
10 88 3 0 62 -46 133 -102z m-2635 -308 c44 -52 47 -162 6 -214 -40 -50 -125
-41 -155 16 -16 31 -21 121 -9 160 22 73 111 94 158 38z m222 -110 l0 -135
-25 0 -25 0 -3 113 c-3 107 -4 113 -22 107 -16 -5 -20 -2 -20 18 0 30 12 37
60 34 l35 -2 0 -135z m274 124 c49 -35 66 -138 33 -204 -35 -72 -124 -78 -169
-11 -25 37 -31 117 -14 164 24 62 98 87 150 51z m3245 -33 c99 -191 192 -579
203 -848 7 -161 -2 -222 -50 -346 -45 -119 -43 -159 17 -277 26 -52 63 -120
81 -150 324 -541 331 -554 322 -651 -5 -62 -26 -110 -66 -152 -36 -40 -70 -56
-190 -91 -82 -24 -108 -37 -124 -58 l-21 -28 32 -94 c18 -52 32 -107 32 -123
-1 -43 -36 -113 -81 -159 l-41 -41 21 -41 c40 -79 22 -152 -59 -238 -28 -29
-50 -60 -50 -68 0 -8 6 -45 14 -83 25 -121 29 -193 13 -269 -35 -163 -122
-267 -272 -324 -88 -33 -233 -36 -476 -12 -224 23 -265 19 -332 -32 -23 -18
-52 -50 -64 -71 -18 -34 -83 -269 -114 -410 -5 -22 -13 -53 -19 -70 -9 -28
-10 -28 -5 10 2 22 9 60 14 84 10 49 -2 91 -27 91 -8 0 -12 6 -8 15 3 8 1 15
-5 15 -5 0 -9 6 -8 13 3 17 -11 47 -22 47 -10 0 -8 -28 3 -46 4 -6 3 -24 -1
-40 l-9 -29 -9 24 c-9 22 -10 21 -25 -20 -9 -24 -28 -84 -43 -134 -15 -49 -33
-108 -41 -130 -7 -22 -20 -75 -29 -119 -18 -89 -29 -116 -50 -116 -31 0 -11
130 50 324 19 61 55 199 81 306 33 144 54 212 81 262 42 80 114 150 198 192
53 27 56 31 34 37 -407 124 -543 190 -676 333 -76 81 -112 140 -150 248 -21
61 -27 96 -30 209 l-5 135 213 -4 c207 -4 213 -5 238 -28 38 -35 85 -55 146
-61 102 -11 208 67 236 171 13 49 -1 133 -31 182 -20 32 -70 75 -117 102 -35
19 -133 15 -178 -8 -21 -11 -40 -18 -41 -17 -4 4 36 50 104 121 l57 58 55 -5
c30 -3 75 -14 100 -26 68 -31 145 -28 201 8 67 42 93 89 92 169 0 54 -5 70
-29 104 -68 95 -194 106 -291 24 -31 -26 -35 -27 -88 -17 -31 6 -60 13 -65 16
-5 3 -11 1 -15 -4 -3 -5 -23 -9 -45 -9 -43 0 -80 -21 -129 -78 -18 -20 -33
-35 -35 -33 -1 2 -9 24 -16 49 -16 49 -46 82 -100 110 -68 35 -102 35 -191 1
-45 -17 -84 -30 -86 -28 -2 2 18 12 44 22 54 21 184 94 275 156 34 24 71 42
81 42 10 -1 15 3 11 9 -3 5 34 49 83 98 252 248 393 540 440 911 16 131 14
247 -10 434 -2 17 6 21 68 27 157 18 397 95 530 172 28 16 74 43 104 60 62 36
235 177 253 206 17 27 25 25 42 -9z m-1655 -147 c18 -64 31 -118 29 -120 -2
-2 -55 -8 -118 -14 -150 -14 -217 -26 -320 -57 -402 -121 -660 -401 -726 -789
-13 -74 -15 -133 -11 -243 6 -170 16 -227 102 -576 87 -350 98 -427 92 -595
-6 -141 -22 -234 -62 -360 -51 -163 -154 -348 -257 -464 l-44 -49 -29 27 c-17
14 -22 23 -13 20 13 -4 21 2 28 22 6 16 15 31 19 34 25 16 171 273 171 301 0
11 4 19 9 19 10 0 24 34 41 102 9 33 9 51 1 65 -8 14 -11 15 -11 3 -3 -47 -11
-85 -20 -94 -6 -6 -7 4 -3 27 4 25 2 37 -6 37 -8 0 -10 8 -5 23 3 12 4 20 1
17 -3 -3 -20 -46 -37 -95 -42 -119 -103 -243 -140 -282 -17 -18 -30 -36 -30
-41 0 -4 -12 -19 -26 -31 -21 -18 -28 -20 -35 -10 -4 7 -11 10 -15 6 -4 -3 -1
-13 6 -22 15 -18 0 -20 -19 -3 -11 11 -13 10 -8 -5 6 -15 4 -16 -14 -7 -19 11
-18 13 24 63 147 174 234 415 244 672 7 180 -10 299 -81 561 -94 345 -116 478
-116 693 0 285 59 482 215 716 184 277 523 478 910 539 149 23 147 23 186 25
l36 1 32 -116z m-2091 -227 c51 -47 52 -169 1 -219 -27 -28 -74 -37 -114 -22
-29 11 -49 65 -49 134 0 76 14 106 57 126 38 16 74 10 105 -19z m227 -107 c0
-132 0 -135 -22 -138 -23 -3 -23 -2 -23 107 l0 111 -30 0 c-51 0 -34 43 20 53
56 10 55 12 55 -133z m283 117 c31 -24 44 -70 40 -133 -6 -89 -28 -118 -95
-122 -45 -3 -53 0 -72 24 -48 61 -50 160 -5 214 33 39 95 47 132 17z m-790
-119 c-3 -125 -4 -133 -23 -133 -19 0 -20 8 -23 108 -3 106 -3 107 -27 107
-18 0 -25 6 -25 18 0 27 9 32 57 32 l44 0 -3 -132z m2393 26 c30 -26 57 -54
61 -63 4 -9 7 -49 7 -89 l1 -74 -44 34 c-198 150 -266 204 -266 209 0 6 108
25 161 28 17 1 43 -14 80 -45z m-404 -96 c158 -121 456 -363 460 -375 5 -13
-21 -120 -31 -131 -3 -2 -78 54 -168 125 -90 71 -203 160 -253 198 -182 141
-207 165 -193 182 14 17 85 52 105 53 6 0 42 -23 80 -52z m-257 -252 c129
-101 486 -388 540 -434 l35 -30 -40 -41 c-21 -23 -44 -41 -50 -41 -5 0 -82 57
-170 128 -89 70 -243 192 -343 271 -100 80 -182 150 -182 158 0 21 71 94 84
86 6 -4 63 -47 126 -97z m-1730 -71 l0 -135 -25 0 c-25 0 -25 1 -26 88 -1 48
-1 95 0 105 2 11 -5 17 -19 17 -28 0 -38 29 -15 46 10 8 34 14 52 14 l33 0 0
-135z m253 126 c46 -18 75 -151 46 -215 -15 -32 -69 -61 -101 -53 -53 14 -72
43 -76 118 -7 126 43 183 131 150z m255 -128 c-3 -130 -4 -138 -23 -138 -19 0
-20 8 -23 113 -2 106 -4 113 -21 107 -25 -8 -35 9 -21 35 8 15 21 20 51 20
l40 0 -3 -137z m300 97 c20 -30 23 -44 20 -102 -3 -48 -10 -75 -24 -95 -66
-88 -174 -29 -174 94 0 61 19 116 47 132 10 6 38 10 63 8 38 -2 48 -7 68 -37z
m677 -281 c33 -28 96 -78 139 -112 200 -157 396 -318 396 -326 0 -9 -40 -30
-93 -50 -26 -10 -36 -3 -182 114 -85 69 -198 158 -251 200 -127 98 -126 97
-107 168 9 31 21 57 27 57 6 0 38 -23 71 -51z m-1481 -89 c41 -15 59 -62 54
-146 -4 -83 -16 -102 -69 -113 -72 -16 -119 37 -119 134 0 107 52 156 134 125z
m251 -125 c0 -127 -1 -130 -22 -133 -22 -3 -22 0 -25 105 -3 103 -4 108 -25
111 -53 8 -8 54 47 49 l25 -2 0 -130z m268 126 c34 -13 50 -67 45 -147 -5 -78
-35 -117 -89 -117 -38 0 -88 49 -90 88 -5 102 0 125 30 156 31 30 61 36 104
20z m237 -126 l0 -135 -25 0 -25 0 0 105 0 105 -26 0 c-20 0 -25 4 -22 22 3
22 29 35 76 37 22 1 22 0 22 -134z m622 -113 c2 -4 57 -51 123 -103 66 -53
128 -105 138 -116 17 -20 17 -20 -20 -27 -91 -15 -127 -8 -186 35 -32 22 -59
50 -61 62 -11 55 -16 157 -7 157 5 0 11 -4 13 -8z m-632 -154 c0 -42 -14 -88
-26 -88 -8 0 -14 7 -14 16 0 12 -7 14 -30 9 -29 -6 -30 -5 -30 28 0 30 3 34
19 30 11 -3 28 0 38 6 25 14 43 14 43 -1z m-741 -110 c-1 -93 -3 -107 -11 -78
-5 19 -13 40 -18 45 -4 6 -11 31 -15 57 -4 26 -13 49 -21 52 -33 13 -9 32 44
35 22 1 22 -1 21 -111z m275 87 c37 -40 48 -124 22 -174 -18 -34 -85 -66 -121
-57 -69 17 -75 206 -8 245 33 19 82 13 107 -14z m224 -52 c-3 -70 -5 -78 -23
-78 -17 0 -20 8 -23 53 -3 44 -6 52 -23 52 -12 0 -19 7 -19 19 0 20 16 28 63
30 l28 1 -3 -77z m410 -245 c7 -25 6 -36 -5 -45 -12 -9 -12 -13 -1 -20 15 -9
62 -123 54 -130 -3 -3 -42 -9 -87 -14 -253 -29 -480 -112 -639 -234 -85 -65
-200 -183 -255 -260 -26 -36 -50 -65 -54 -65 -7 0 -51 47 -51 54 0 3 6 11 13
18 6 7 29 38 49 68 21 30 51 70 67 88 17 18 27 39 25 47 -4 9 0 12 13 9 11 -3
32 9 55 31 52 50 123 103 164 122 41 20 45 36 7 27 l-28 -5 23 19 c15 14 18
22 10 25 -10 4 -9 8 2 16 27 19 -4 11 -35 -9 -16 -11 -39 -25 -50 -32 -108
-69 -284 -242 -362 -357 -2 -2 -6 -2 -9 1 -3 4 -1 16 6 27 7 13 7 21 1 21 -16
0 -32 -37 -24 -57 6 -16 5 -16 -10 -4 -20 16 -16 26 61 131 110 150 297 313
462 403 117 65 435 154 552 156 34 1 38 -2 46 -31z m-658 -272 c0 -3 -4 -8
-10 -11 -5 -3 -10 -1 -10 4 0 6 5 11 10 11 6 0 10 -2 10 -4z m2073 -35 c62
-24 84 -89 52 -151 -33 -64 -115 -68 -165 -8 -14 17 -37 18 -310 21 l-295 2
-3 38 -3 37 268 2 c147 0 279 2 293 3 14 1 40 16 57 33 33 33 62 39 106 23z
m760 -31 c31 -34 34 -67 11 -111 -29 -58 -104 -70 -166 -28 -21 16 -45 19
-133 19 l-106 0 -130 -125 c-72 -69 -140 -127 -152 -130 -12 -3 -193 -4 -402
-3 l-380 3 0 40 0 40 386 3 385 2 129 131 128 130 124 -2 c123 -2 125 -2 146
23 12 14 31 31 42 37 33 19 87 5 118 -29z m-2898 -10 c-3 -5 -12 -10 -18 -10
-7 0 -6 4 3 10 19 12 23 12 15 0z m740 -102 l110 -91 5 -69 c8 -110 6 -111
-96 -26 -49 40 -132 108 -186 150 -53 42 -99 81 -102 87 -8 13 76 39 124 40
30 0 52 -13 145 -91z m-302 -199 c396 -316 368 -291 361 -319 -3 -14 -13 -42
-22 -63 l-17 -37 -100 77 c-55 42 -150 118 -211 168 -61 49 -158 126 -217 170
-59 44 -107 83 -107 87 0 9 90 78 102 78 5 0 100 -72 211 -161z m-371 -151
c20 -35 56 -108 81 -163 210 -471 221 -967 36 -1598 -22 -73 -34 -88 -18 -22
5 22 11 56 15 75 3 19 7 43 10 53 3 9 1 17 -4 17 -9 0 -7 89 3 165 4 36 4 38
-9 22 -14 -18 -14 -18 -20 1 -4 10 -13 19 -21 19 -8 0 -12 -4 -9 -9 3 -4 0 -8
-6 -8 -7 0 -9 -12 -7 -30 6 -32 -13 -38 -25 -7 -8 19 -28 24 -28 6 0 -5 5 -7
10 -4 6 3 10 1 10 -4 0 -6 -8 -11 -17 -12 -14 0 -13 -2 5 -9 27 -12 29 -24 2
-15 -19 6 -25 -5 -21 -41 1 -6 -6 -11 -14 -11 -18 0 -19 -10 5 98 56 251 70
634 32 849 -25 138 -77 300 -139 432 -31 67 -43 102 -36 110 41 57 118 148
123 148 3 0 22 -28 42 -62z m2534 -7 c68 -41 83 -145 28 -202 -61 -64 -147
-59 -207 11 l-34 40 -493 0 -492 0 6 23 c3 12 6 30 6 40 0 16 30 17 490 17
l489 0 23 31 c13 17 34 37 48 45 36 19 100 17 136 -5z m-1565 -223 c-3 -21 -6
-26 -9 -15 -3 17 3 47 11 47 2 0 1 -15 -2 -32z m415 -587 l2 -553 136 -137
137 -136 -5 -174 c-3 -95 -8 -176 -11 -179 -3 -3 -5 0 -5 7 0 7 -4 9 -10 6 -5
-3 -11 2 -11 12 -2 29 -17 -38 -18 -81 0 -22 -3 -37 -6 -35 -8 9 -14 111 -15
265 l0 151 -140 139 -140 139 0 552 c0 303 3 559 6 568 5 12 17 15 43 13 l36
-3 1 -554z m-883 447 c42 -30 36 -89 -16 -145 -11 -13 -24 -23 -29 -23 -4 0
-8 45 -8 101 0 107 -2 105 53 67z m407 -58 c-6 -12 -14 -20 -17 -17 -2 3 1 14
8 26 7 11 15 18 17 16 2 -2 -2 -13 -8 -25z m-50 -69 c-14 -26 -29 -35 -26 -15
1 8 9 20 17 25 20 12 21 11 9 -10z m793 3 c12 -4 14 -64 11 -419 l-4 -413 129
-123 c73 -70 131 -133 132 -144 5 -62 -5 -553 -11 -515 -7 42 -11 43 -13 3 -1
-10 -7 -22 -14 -26 -7 -4 -13 -13 -13 -18 0 -6 5 -7 10 -4 15 9 12 -11 -3 -24
-10 -8 -14 -7 -14 2 0 6 -3 136 -7 287 l-7 275 -37 34 c-20 19 -81 77 -134
129 l-98 95 0 433 0 434 29 0 c16 0 36 -3 44 -6z m-1153 -313 l29 -29 -6 -321
c-4 -220 -3 -321 4 -321 14 0 73 -61 73 -74 -1 -6 -9 -1 -19 11 -37 45 -110
58 -155 28 -17 -11 -26 -13 -26 -6 0 7 14 20 31 29 l31 17 -5 348 c-3 226 -2
347 5 347 5 0 23 -13 38 -29z m627 -2 c103 -39 118 -156 29 -235 l-46 -40 0
-240 0 -239 35 -24 c19 -13 35 -27 35 -30 0 -13 -64 -31 -74 -21 -14 14 -48
12 -69 -4 -25 -19 -42 -73 -28 -89 7 -10 5 -18 -9 -30 -19 -16 -21 -16 -41 15
-32 52 -21 110 30 162 l41 42 0 235 0 235 -30 17 c-64 38 -81 142 -34 204 39
51 97 66 161 42z m757 -175 c3 -8 2 -12 -4 -9 -6 3 -10 10 -10 16 0 14 7 11
14 -7z m-1074 -611 c0 -317 -3 -574 -6 -571 -3 4 -6 70 -7 147 0 78 -5 141 -9
141 -4 0 -8 -13 -8 -29 0 -22 -4 -29 -17 -27 -22 3 -20 -25 -29 494 l-7 422
41 0 42 0 0 -577z m3704 568 c3 -4 3 -11 0 -14 -8 -8 -34 3 -34 14 0 11 27 12
34 0z m-248 -158 c-10 -10 -19 5 -10 18 6 11 8 11 12 0 2 -7 1 -15 -2 -18z
m-282 -228 c-4 -8 -11 -15 -16 -15 -6 0 -5 6 2 15 7 8 14 15 16 15 2 0 1 -7
-2 -15z m-34 -29 c0 -2 -8 -10 -17 -17 -16 -13 -17 -12 -4 4 13 16 21 21 21
13z m-3860 -37 c0 -14 -17 -10 -23 5 -4 10 -1 13 9 9 7 -3 14 -9 14 -14z m14
-41 c-1 -13 -3 -47 -3 -75 -1 -29 -5 -53 -10 -53 -8 0 -5 110 4 138 7 20 12
14 9 -10z m430 -23 c19 -28 21 -48 3 -24 -20 26 -55 33 -82 15 -21 -14 -25
-14 -25 -2 0 40 80 48 104 11z m21 15 c3 -5 1 -10 -4 -10 -6 0 -11 5 -11 10 0
6 2 10 4 10 3 0 8 -4 11 -10z m3303 -2 c-7 -7 -22 -20 -33 -28 -15 -10 -14 -7
4 13 14 15 29 27 33 27 5 0 3 -6 -4 -12z m-3472 -25 c-10 -10 -19 5 -10 18 6
11 8 11 12 0 2 -7 1 -15 -2 -18z m189 -3 c3 -5 1 -10 -4 -10 -6 0 -11 5 -11
10 0 6 2 10 4 10 3 0 8 -4 11 -10z m35 -20 c0 -5 -2 -10 -4 -10 -3 0 -8 5 -11
10 -3 6 -1 10 4 10 6 0 11 -4 11 -10z m-650 -40 c0 -5 -5 -10 -11 -10 -5 0 -7
5 -4 10 3 6 8 10 11 10 2 0 4 -4 4 -10z m1392 -180 c-3 -12 -1 -12 9 -3 9 9
18 9 40 -3 16 -8 29 -19 29 -25 0 -8 -4 -8 -14 0 -11 9 -15 7 -19 -10 -3 -12
-2 -31 4 -41 5 -10 6 -18 1 -18 -5 0 -15 11 -22 25 -7 14 -20 25 -28 25 -8 0
-12 6 -9 14 11 28 -19 39 -55 20 -37 -19 -50 -33 -41 -48 3 -5 1 -6 -5 -2 -7
4 -12 2 -12 -3 0 -6 -5 -11 -11 -11 -30 0 24 71 70 92 27 12 66 5 63 -12z
m-41 -40 c-12 -11 -28 -17 -34 -13 -12 8 20 33 42 33 12 -1 10 -6 -8 -20z
m119 -31 c0 -6 -4 -7 -10 -4 -5 3 -10 11 -10 16 0 6 5 7 10 4 6 -3 10 -11 10
-16z m2224 -104 c-4 -8 -8 -15 -10 -15 -2 0 -4 7 -4 15 0 8 4 15 10 15 5 0 7
-7 4 -15z m-3974 -25 c8 -5 12 -11 10 -14 -3 -2 -14 2 -24 10 -22 15 -10 19
14 4z m1074 -2 c-5 -8 -2 -9 9 -5 13 5 17 1 17 -16 0 -18 -2 -19 -10 -7 -8 13
-10 13 -10 -2 0 -9 5 -20 10 -23 6 -3 10 -14 9 -23 0 -14 -2 -13 -9 3 -7 17
-9 17 -9 3 -1 -22 -18 -24 -18 -3 0 8 4 15 9 15 4 0 3 8 -3 19 -11 17 -7 51 6
51 4 0 3 -5 -1 -12z m893 -40 c-3 -7 -5 -2 -5 12 0 14 2 19 5 13 2 -7 2 -19 0
-25z m1913 -5 c-8 -4 -33 -17 -55 -30 l-40 -24 35 31 c19 16 43 30 55 29 14 0
16 -2 5 -6z m-3765 -33 c3 -6 -1 -7 -9 -4 -18 7 -21 14 -7 14 6 0 13 -4 16
-10z m3651 -35 c-11 -8 -25 -15 -30 -15 -6 0 -2 7 8 15 11 8 25 15 30 15 6 0
2 -7 -8 -15z m-3486 -71 c0 -2 -9 0 -20 6 -11 6 -20 13 -20 16 0 2 9 0 20 -6
11 -6 20 -13 20 -16z"/>
<path d="M3748 6538 c-23 -8 -28 -16 -28 -42 0 -39 15 -56 50 -56 14 0 31 5
38 12 17 17 15 64 -4 82 -17 18 -19 18 -56 4z m52 -27 c13 -25 13 -27 -5 -44
-19 -20 -52 -11 -61 16 -4 14 -1 25 12 34 25 18 42 16 54 -6z"/>
<path d="M3745 6500 c-3 -5 -1 -10 4 -10 6 0 11 5 11 10 0 6 -2 10 -4 10 -3 0
-8 -4 -11 -10z"/>
<path d="M3770 6479 c0 -5 5 -7 10 -4 6 3 10 8 10 11 0 2 -4 4 -10 4 -5 0 -10
-5 -10 -11z"/>
<path d="M3105 6137 c-13 -20 -14 -29 -4 -51 23 -49 78 -46 100 6 17 40 2 62
-44 66 -29 3 -39 -2 -52 -21z"/>
<path d="M4086 6145 c-22 -22 -20 -58 4 -80 41 -37 112 27 83 74 -14 22 -67
26 -87 6z m41 -8 c0 -8 -6 -14 -14 -14 -17 0 -17 14 0 20 6 3 12 6 13 6 0 1 1
-5 1 -12z m27 -29 c-3 -4 -11 -8 -17 -7 -9 0 -9 2 0 5 7 3 9 13 6 22 -4 14 -3
14 5 2 6 -8 8 -18 6 -22z"/>
<path d="M2600 6065 c-19 -23 -17 -133 4 -153 13 -13 20 -14 34 -6 24 16 30
135 7 158 -20 20 -29 20 -45 1z"/>
<path d="M2346 5674 c-12 -32 -6 -141 8 -153 22 -19 53 3 60 42 8 42 -2 109
-18 119 -19 13 -44 9 -50 -8z"/>
<path d="M2850 5671 c-16 -31 -13 -127 6 -145 20 -21 30 -20 54 4 23 23 27 93
8 135 -14 30 -53 34 -68 6z"/>
<path d="M5830 4471 c-95 -20 -208 -69 -316 -136 -40 -25 -77 -45 -83 -45 -70
0 268 -129 431 -164 l28 -6 -6 72 c-4 53 -2 84 9 113 8 22 25 66 37 98 22 58
21 88 -2 86 -7 0 -51 -9 -98 -18z"/>
<path d="M4450 2506 c0 -8 -6 -17 -12 -19 -10 -4 -10 -6 -1 -6 7 -1 16 -19 19
-41 5 -33 9 -38 20 -29 10 9 11 15 4 25 -6 7 -10 18 -9 26 4 29 -2 58 -11 58
-5 0 -10 -6 -10 -14z"/>
<path d="M4500 2513 c0 -5 11 -9 25 -9 14 -1 22 2 19 7 -6 11 -44 12 -44 2z"/>
<path d="M5204 2508 c6 -20 -9 -25 -18 -5 -4 6 -4 2 -2 -10 4 -25 -33 -56 -53
-44 -7 5 -23 7 -37 5 -16 -1 -24 3 -24 13 0 13 -3 13 -15 3 -9 -7 -31 -14 -50
-16 -27 -2 -35 2 -36 14 0 11 -2 12 -6 4 -2 -6 -9 -10 -14 -7 -5 4 -6 -2 -2
-11 5 -13 3 -16 -10 -11 -12 4 -17 1 -17 -11 0 -12 -2 -14 -8 -4 -16 24 -49
22 -61 -4 -6 -14 -16 -22 -21 -19 -6 3 -10 2 -10 -4 0 -12 -27 -8 -41 6 -7 7
1 9 25 8 39 -3 54 16 28 37 -13 11 -14 11 -7 -1 6 -11 4 -13 -8 -8 -10 3 -17
3 -17 -2 0 -5 -21 -7 -47 -6 -80 4 -77 3 -63 20 11 13 10 14 -4 9 -11 -4 -15
-13 -10 -26 4 -13 2 -18 -4 -14 -6 3 -13 2 -17 -4 -3 -5 -1 -10 5 -10 6 0 9
-4 5 -10 -3 -5 -13 -6 -21 -3 -11 4 -12 9 -5 16 20 20 12 34 -15 29 -18 -3
-25 -1 -20 6 4 7 -4 7 -24 -1 -31 -12 -37 -21 -20 -32 6 -3 13 1 16 9 3 9 10
16 15 16 4 0 6 -7 3 -15 -4 -8 -1 -15 5 -15 6 0 11 -5 11 -11 0 -5 -5 -7 -10
-4 -6 4 -19 4 -28 0 -9 -4 -32 -7 -49 -6 -35 3 -40 -7 -21 -39 18 -29 0 -38
-20 -9 -9 13 -17 26 -17 29 0 3 -8 17 -18 31 -10 15 -20 37 -22 49 -5 26 -12
36 -21 28 -3 -4 13 -45 36 -92 31 -63 59 -103 107 -151 95 -95 126 -115 298
-190 32 -13 273 -92 365 -119 189 -54 430 -98 540 -98 110 0 168 17 217 64 32
31 61 93 49 105 -3 4 -6 0 -6 -9 0 -8 -8 -22 -19 -32 -14 -13 -24 -14 -45 -6
-15 5 -48 10 -73 10 -52 0 -79 14 -198 104 -92 68 -123 101 -169 171 -39 60
-64 124 -72 188 -7 46 -19 61 -30 33 -3 -8 -12 -12 -20 -9 -9 3 -13 11 -10 18
7 19 -16 44 -46 49 -18 3 -28 -1 -32 -11 -5 -11 -2 -13 10 -9 24 9 12 -15 -20
-38 -23 -18 -28 -19 -36 -6 -7 11 -5 19 7 28 9 6 14 13 10 13 -4 1 -10 2 -14
3 -5 1 -14 5 -20 9 -7 5 -13 5 -13 0 0 -4 -5 -1 -11 7 -9 13 -10 12 -5 -2z
m33 -37 c0 -10 -6 -18 -13 -18 -9 0 -12 28 -5 45 4 11 19 -12 18 -27z m115 -3
c-15 -15 -24 -6 -16 16 5 12 10 14 17 7 8 -8 8 -14 -1 -23z m-156 -42 c-1 -22
-5 -32 -13 -29 -7 3 -13 7 -13 9 0 4 23 54 25 54 1 0 1 -15 1 -34z m108 -5
c-18 -31 -34 -40 -34 -21 0 6 7 13 15 16 8 4 12 11 9 16 -4 6 0 14 7 19 21 13
22 3 3 -30z m114 14 c-1 -14 -6 -25 -11 -25 -4 0 -5 -5 -1 -12 4 -6 3 -8 -4
-5 -11 7 -10 20 3 50 10 24 15 21 13 -8z m-708 -25 c0 -11 -4 -20 -9 -20 -14
0 -23 18 -16 30 10 17 25 11 25 -10z m307 -1 c2 -16 -1 -19 -9 -11 -5 5 -7 15
-4 21 10 15 12 14 13 -10z m70 -4 c0 -8 -4 -12 -9 -9 -5 3 -6 10 -3 15 9 13
12 11 12 -6z m274 -8 c-10 -9 -11 -8 -5 6 3 10 9 15 12 12 3 -3 0 -11 -7 -18z
m-606 3 c3 -5 2 -10 -4 -10 -5 0 -13 5 -16 10 -3 6 -2 10 4 10 5 0 13 -4 16
-10z m185 1 c0 -4 -12 -7 -26 -5 -38 4 -42 14 -6 14 18 0 32 -4 32 -9z m190 5
c0 -3 -4 -8 -10 -11 -5 -3 -10 -1 -10 4 0 6 5 11 10 11 6 0 10 -2 10 -4z m297
-45 c-2 -10 0 -27 5 -37 9 -18 8 -18 -6 0 -18 23 -21 56 -5 56 6 0 9 -8 6 -19z
m-847 -33 c0 -5 -7 -8 -15 -8 -15 0 -20 21 -8 33 7 7 23 -11 23 -25z m-50 -28
c0 -5 -2 -10 -4 -10 -3 0 -8 5 -11 10 -3 6 -1 10 4 10 6 0 11 -4 11 -10z m43
-35 c4 0 7 -3 7 -7 0 -5 -3 -7 -7 -7 -20 4 -33 12 -33 21 0 5 6 6 13 1 6 -4
15 -8 20 -8z"/>
<path d="M4390 2500 c0 -5 5 -10 10 -10 6 0 10 5 10 10 0 6 -4 10 -10 10 -5 0
-10 -4 -10 -10z"/>
<path d="M4793 2482 c-8 -14 -8 -19 1 -19 7 0 13 9 13 19 1 10 1 18 0 18 -1 0
-7 -8 -14 -18z"/>
<path d="M4980 2491 c0 -6 4 -13 10 -16 6 -3 7 1 4 9 -7 18 -14 21 -14 7z"/>
<path d="M4510 2410 c0 -5 5 -10 11 -10 5 0 7 5 4 10 -3 6 -8 10 -11 10 -2 0
-4 -4 -4 -10z"/>
<path d="M3472 2960 c0 -14 2 -19 5 -12 2 6 2 18 0 25 -3 6 -5 1 -5 -13z"/>
<path d="M3411 2874 c0 -11 3 -14 6 -6 3 7 2 16 -1 19 -3 4 -6 -2 -5 -13z"/>
<path d="M2350 5285 c-18 -21 -24 -104 -11 -137 7 -20 18 -28 35 -28 32 0 51
46 42 107 -9 68 -37 93 -66 58z"/>
<path d="M2861 5286 c-18 -22 -24 -107 -9 -136 16 -29 42 -37 63 -20 23 19 20
132 -3 153 -23 21 -36 21 -51 3z"/>
<path d="M2339 4879 c-16 -30 -7 -135 13 -156 15 -14 18 -13 42 10 21 21 26
36 26 77 0 28 -5 60 -10 71 -14 26 -56 25 -71 -2z"/>
<path d="M2854 4863 c-17 -39 -13 -106 8 -130 16 -19 46 -16 58 7 15 28 15
127 0 145 -22 27 -50 18 -66 -22z"/>
<path d="M2105 4496 c-41 -29 -25 -189 19 -182 42 6 63 62 49 130 -11 49 -41
72 -68 52z"/>
<path d="M2616 4494 c-9 -8 -16 -27 -17 -42 0 -15 -2 -37 -3 -49 -7 -61 43
-105 75 -67 20 24 13 145 -8 162 -22 16 -28 15 -47 -4z"/>
<path d="M2346 4088 c-20 -28 -20 -70 -2 -123 17 -48 52 -56 73 -15 30 59 7
160 -37 160 -10 0 -26 -10 -34 -22z"/>
<path d="M3020 3775 c-8 -2 -32 -6 -53 -10 -21 -3 -35 -10 -32 -15 3 -6 16 -5
31 0 14 6 39 10 55 10 16 0 29 5 29 10 0 10 -2 10 -30 5z"/>
<path d="M2837 3743 c-32 -9 -56 -17 -54 -19 6 -6 121 18 132 27 13 12 -9 10
-78 -8z"/>
<path d="M3070 3723 c0 -7 -16 -10 -42 -8 -25 2 -50 -2 -62 -11 -18 -12 -12
-13 50 -7 78 7 83 8 66 25 -8 8 -12 9 -12 1z"/>
<path d="M2494 3614 c-18 -14 -18 -15 4 -4 12 6 22 13 22 15 0 8 -5 6 -26 -11z"/>
<path d="M2480 3540 c-8 -5 -10 -10 -5 -10 6 0 17 5 25 10 8 5 11 10 5 10 -5
0 -17 -5 -25 -10z"/>
<path d="M2430 1621 c0 -5 5 -13 10 -16 6 -3 10 -2 10 4 0 5 -4 13 -10 16 -5
3 -10 2 -10 -4z"/>
<path d="M4845 2940 c-27 -29 -10 -74 28 -78 36 -4 57 13 57 47 0 51 -50 69
-85 31z"/>
<path d="M2917 1925 c-4 -8 -2 -17 3 -20 6 -4 10 3 10 14 0 25 -6 27 -13 6z"/>
<path d="M2905 1880 c-7 -12 2 -30 16 -30 5 0 9 9 9 20 0 21 -15 27 -25 10z"/>
<path d="M2922 1820 c0 -14 2 -19 5 -12 2 6 2 18 0 25 -3 6 -5 1 -5 -13z"/>
<path d="M2903 1647 c-1 -22 4 -38 13 -41 10 -4 13 3 11 28 -1 19 -5 32 -9 30
-3 -2 -8 1 -10 7 -2 7 -4 -4 -5 -24z"/>
<path d="M2913 1583 c-17 -6 -17 -23 0 -23 8 0 14 7 14 15 0 8 -1 15 -1 14 -1
0 -7 -3 -13 -6z"/>
<path d="M3464 2142 c-47 -31 -27 -111 29 -112 22 0 57 35 57 58 0 40 -56 75
-86 54z"/>
<path d="M3200 1180 c0 -11 4 -20 9 -20 5 0 7 9 4 20 -3 11 -7 20 -9 20 -2 0
-4 -9 -4 -20z"/>
<path d="M3176 1135 c-3 -8 -1 -15 4 -15 6 0 10 7 10 15 0 8 -2 15 -4 15 -2 0
-6 -7 -10 -15z"/>
<path d="M3000 7839 c0 -5 5 -7 10 -4 6 3 10 8 10 11 0 2 -4 4 -10 4 -5 0 -10
-5 -10 -11z"/>
<path d="M3795 7775 c-5 -2 -72 -11 -148 -20 -76 -10 -136 -20 -133 -22 2 -3
69 3 148 12 79 10 258 21 398 25 l255 7 -255 0 c-140 0 -259 -1 -265 -2z"/>
<path d="M5285 7770 c-3 -5 -2 -10 4 -10 5 0 13 5 16 10 3 6 2 10 -4 10 -5 0
-13 -4 -16 -10z"/>
<path d="M4353 7763 c15 -2 39 -2 55 0 15 2 2 4 -28 4 -30 0 -43 -2 -27 -4z"/>
<path d="M4440 7758 c0 -4 21 -8 48 -7 52 1 48 6 -10 11 -21 2 -38 0 -38 -4z"/>
<path d="M4948 7723 c7 -3 16 -2 19 1 4 3 -2 6 -13 5 -11 0 -14 -3 -6 -6z"/>
<path d="M5178 7714 c-4 -4 -37 -6 -73 -6 -36 1 -63 -2 -61 -7 3 -5 28 -7 55
-6 39 2 51 -1 54 -14 4 -12 5 -11 6 4 1 16 3 17 11 5 11 -18 23 -8 18 15 -1 9
-6 13 -10 9z"/>
<path d="M4985 7700 c-3 -5 -2 -10 4 -10 5 0 13 5 16 10 3 6 2 10 -4 10 -5 0
-13 -4 -16 -10z"/>
<path d="M5065 7670 c4 -6 11 -8 16 -5 14 9 11 15 -7 15 -8 0 -12 -5 -9 -10z"/>
<path d="M5150 7650 c0 -13 11 -13 30 0 12 8 11 10 -7 10 -13 0 -23 -4 -23
-10z"/>
<path d="M5190 7639 c-12 -8 -10 -10 11 -7 14 3 31 -1 37 -9 17 -17 32 -17 32
2 0 9 -6 12 -15 9 -8 -4 -15 -1 -15 5 0 14 -30 14 -50 0z"/>
<path d="M5377 7629 c-9 -5 -22 -7 -27 -4 -6 3 -10 1 -10 -4 0 -6 5 -11 11
-11 8 0 8 -5 -1 -15 -7 -8 -17 -12 -23 -8 -6 3 -7 1 -3 -5 4 -7 14 -12 22 -12
8 0 12 5 9 10 -3 6 4 10 17 11 13 0 17 3 11 6 -7 2 -13 9 -13 14 0 14 28 11
33 -3 3 -7 6 -3 6 10 1 24 -5 27 -32 11z"/>
<path d="M5280 7620 c0 -6 5 -10 11 -10 5 0 7 -4 4 -10 -9 -15 4 -12 21 4 19
19 18 21 -11 24 -14 1 -25 -3 -25 -8z"/>
<path d="M3830 7450 c0 -5 5 -10 10 -10 6 0 10 5 10 10 0 6 -4 10 -10 10 -5 0
-10 -4 -10 -10z"/>
<path d="M4558 7393 c7 -3 16 -2 19 1 4 3 -2 6 -13 5 -11 0 -14 -3 -6 -6z"/>
<path d="M3356 7355 c-8 -8 -27 -15 -42 -15 -15 0 -25 -3 -21 -6 12 -12 97 7
97 22 0 18 -15 18 -34 -1z"/>
<path d="M3440 7332 c0 -5 7 -15 15 -22 8 -7 15 -9 15 -6 0 4 -7 14 -15 22 -8
9 -15 11 -15 6z"/>
<path d="M3486 7318 c3 -5 10 -6 15 -3 13 9 11 12 -6 12 -8 0 -12 -4 -9 -9z"/>
<path d="M4665 7310 c4 -6 11 -8 16 -5 14 9 11 15 -7 15 -8 0 -12 -5 -9 -10z"/>
<path d="M4813 7289 c-16 -7 -16 -8 4 -8 12 -1 30 -4 40 -7 14 -5 15 -4 4 4
-11 8 -9 11 10 15 18 3 16 4 -8 4 -17 -1 -40 -4 -50 -8z"/>
<path d="M4937 7294 c7 -3 9 -13 6 -22 -6 -15 -5 -15 11 -3 13 11 14 16 4 22
-7 5 -17 8 -23 8 -5 0 -5 -3 2 -5z"/>
<path d="M3488 7283 c7 -3 16 -2 19 1 4 3 -2 6 -13 5 -11 0 -14 -3 -6 -6z"/>
<path d="M3416 7265 c-18 -14 -18 -14 1 -12 11 0 20 7 20 14 0 7 -1 13 -1 13
-1 0 -9 -7 -20 -15z"/>
<path d="M5010 7270 c0 -5 5 -10 10 -10 6 0 10 5 10 10 0 6 -4 10 -10 10 -5 0
-10 -4 -10 -10z"/>
<path d="M5045 7250 c-3 -5 -1 -10 4 -10 6 0 11 5 11 10 0 6 -2 10 -4 10 -3 0
-8 -4 -11 -10z"/>
<path d="M3580 7220 c0 -5 15 -17 33 -26 l32 -17 -25 26 c-26 28 -40 34 -40
17z"/>
<path d="M4908 7203 c6 -2 12 -11 12 -19 0 -9 -5 -12 -12 -8 -7 4 -8 3 -4 -4
4 -6 14 -8 23 -5 10 4 14 2 10 -4 -9 -15 3 -44 14 -37 5 3 7 9 4 14 -3 5 -1
11 5 15 7 4 6 13 -1 27 -8 15 -13 17 -19 9 -5 -9 -9 -9 -13 3 -4 9 -12 16 -19
15 -10 0 -10 -2 0 -6z"/>
<path d="M4720 7187 c0 -8 -10 -19 -22 -25 -23 -11 -23 -11 2 -8 17 2 26 10
28 24 2 12 1 22 -2 22 -3 0 -6 -6 -6 -13z"/>
<path d="M4840 7196 c0 -10 28 -13 41 -5 10 6 7 9 -13 9 -16 0 -28 -2 -28 -4z"/>
<path d="M4830 7172 c0 -4 11 -8 25 -8 33 -2 33 11 0 14 -14 1 -25 -2 -25 -6z"/>
<path d="M3793 7158 c3 -9 1 -19 -6 -22 -7 -2 2 -5 18 -5 21 0 26 2 16 8 -7 5
-18 15 -23 22 -8 11 -9 10 -5 -3z"/>
<path d="M4528 7153 c7 -3 16 -2 19 1 4 3 -2 6 -13 5 -11 0 -14 -3 -6 -6z"/>
<path d="M3868 7143 c7 -3 16 -2 19 1 4 3 -2 6 -13 5 -11 0 -14 -3 -6 -6z"/>
<path d="M4108 7143 c7 -3 16 -2 19 1 4 3 -2 6 -13 5 -11 0 -14 -3 -6 -6z"/>
<path d="M4614 7120 c0 -11 4 -20 8 -20 4 0 8 9 8 20 0 11 -4 20 -8 20 -4 0
-8 -9 -8 -20z"/>
<path d="M980 2430 c0 -5 5 -10 11 -10 5 0 7 5 4 10 -3 6 -8 10 -11 10 -2 0
-4 -4 -4 -10z"/>
<path d="M1010 2385 c0 -8 4 -15 10 -15 5 0 7 7 4 15 -4 8 -8 15 -10 15 -2 0
-4 -7 -4 -15z"/>
<path d="M1180 2350 c0 -5 5 -10 11 -10 5 0 7 5 4 10 -3 6 -8 10 -11 10 -2 0
-4 -4 -4 -10z"/>
<path d="M1087 2243 c-7 -7 18 -59 33 -68 6 -4 10 6 10 24 0 29 -29 59 -43 44z"/>
<path d="M1220 2230 c0 -5 5 -10 10 -10 6 0 10 5 10 10 0 6 -4 10 -10 10 -5 0
-10 -4 -10 -10z"/>
<path d="M6930 2069 c0 -5 5 -7 10 -4 6 3 10 8 10 11 0 2 -4 4 -10 4 -5 0 -10
-5 -10 -11z"/>
<path d="M6993 2065 c0 -8 4 -12 9 -9 4 3 8 9 8 15 0 5 -4 9 -8 9 -5 0 -9 -7
-9 -15z"/>
<path d="M1580 1485 c29 -39 167 -165 181 -165 5 0 9 -7 9 -15 0 -8 4 -15 9
-15 5 0 23 -13 41 -30 32 -30 40 -35 40 -24 0 8 -130 135 -182 177 -26 21 -53
43 -60 50 -7 7 -22 19 -33 27 -19 14 -19 14 -5 -5z"/>
<path d="M6474 1354 c-18 -14 -18 -15 4 -4 12 6 22 13 22 15 0 8 -5 6 -26 -11z"/>
<path d="M1876 1215 c4 -8 10 -15 15 -15 4 0 6 7 3 15 -4 8 -10 15 -15 15 -4
0 -6 -7 -3 -15z"/>
<path d="M1910 1191 c0 -6 12 -18 28 -28 15 -10 32 -25 39 -33 6 -8 15 -12 19
-7 4 4 5 8 3 10 -2 2 -23 18 -46 36 -24 18 -43 28 -43 22z"/>
<path d="M2010 1096 c0 -9 30 -14 35 -6 4 6 -3 10 -14 10 -12 0 -21 -2 -21 -4z"/>
</g>
</svg>
